<?xml version="1.0" encoding="UTF-8"?>
<svg width="90px" height="100px" viewBox="0 0 90 100" version="1.1" xmlns="http://www.w3.org/2000/svg" xmlns:xlink="http://www.w3.org/1999/xlink">
    <title>Group</title>
    <g id="Page-1" stroke="none" stroke-width="1" fill="none" fill-rule="evenodd">
        <g id="Group" transform="translate(0.000000, 0.000000)">
            <path d="M16.8033266,93.2267705 C11.5967356,90.4208049 7.66050883,85.5247311 5.67838039,80.0403882 C3.49203265,73.9872554 3.56110682,67.290338 5.19586225,61.0755286 C5.78149111,58.8490665 6.56933711,56.6576669 7.75360881,54.6698239 C9.09104497,52.4238827 10.906995,50.4837635 12.3685644,48.311843 C14.5859455,45.0159779 15.9464064,41.257484 17.2748329,37.5389222 C18.879556,33.0499618 20.775592,28.15194 26.4667033,27.103964 C27.5508675,26.9043032 28.6730725,26.9033292 29.7592388,27.0903287 C35.6866038,28.1129818 39.228407,33.1814458 40.1353809,38.4690497 C40.9552613,43.2492228 39.8630885,48.4189781 41.9813632,52.8056732 C43.0445048,55.0077864 44.8274193,56.7920727 46.6093328,58.4984426 C50.1841715,61.9248177 53.9141769,65.258667 56.7502223,69.2859726 C59.5862677,73.3132782 61.4883101,78.188899 60.8896673,83.0353011 C60.3641029,87.2875904 57.9785412,91.1230268 55.1525066,94.4062305 C53.4316587,96.404787 51.4465271,98.3078958 48.9418375,99.2341274 C46.2058996,100.245093 43.1696392,99.9821252 40.2585132,99.6811729 C32.7023993,98.8990867 25.7509347,99.4513195 19.9997589,95.2866861 C18.972656,94.5435582 17.9225284,93.8306228 16.8033266,93.2267705 Z" id="Fill-105" fill-opacity="0.5" fill="#90B89B"></path>
            <path d="M67.3145781,33.2159281 C63.7885781,33.2159281 60.9305781,30.3579281 60.9305781,26.8319281 C60.9305781,23.3069281 63.7885781,20.4489281 67.3145781,20.4489281 C70.8395781,20.4489281 73.6975781,23.3069281 73.6975781,26.8319281 C73.6975781,30.3579281 70.8395781,33.2159281 67.3145781,33.2159281 Z" id="Fill-106" fill-opacity="0.5" fill="#90B89B"></path>
            <path d="M30.311,94.3624183 C29.59,90.6264183 29.452,86.8174183 29.906,83.0384183 C30.153,80.9864183 30.643,78.3974183 32.257,76.5684183 C33.569,75.0834183 36.077,74.1654183 37.844,75.2744183 C39.495,76.3124183 39.992,78.6784183 40.242,80.6234183 C40.803,85.0044183 40.866,89.4554183 40.429,93.8524183 C40.415,93.9874183 40.433,94.1184183 40.474,94.2404183 C37.086,94.3084183 33.698,94.3494183 30.311,94.3624183 Z M13.291,94.2014183 C13.186,92.5474183 13.11,90.8894183 13.048,89.2294183 L15.763,89.0544183 C15.935,89.0434183 16.066,88.8954183 16.055,88.7224183 C16.044,88.5494183 15.889,88.4154183 15.723,88.4304183 L13.025,88.6034183 C12.774,81.1864183 12.946,73.7244183 13.555,66.3474183 C13.561,66.2704183 13.555,66.1944183 13.544,66.1214183 C16.355,64.0844183 19.189,62.0214183 21.969,59.9944183 C26.399,56.7674183 30.97,53.4374183 35.349,50.2904183 C42.74,54.5094183 49.964,59.1444183 56.903,64.1084183 C56.836,64.7654183 56.775,65.4324183 56.715,66.1014183 C55.415,65.8484183 54.094,65.7144183 52.771,65.7144183 C52.584,65.7084183 52.428,65.8434183 52.428,66.0274183 C52.428,66.2004183 52.568,66.3404183 52.741,66.3404183 C52.745,66.3494183 52.761,66.3404183 52.771,66.3404183 C54.074,66.3404183 55.376,66.4754183 56.656,66.7284183 C56.603,67.3324183 56.558,67.9434183 56.512,68.5564183 L53.728,68.4894183 C53.53,68.4854183 53.412,68.6224183 53.408,68.7954183 C53.404,68.9684183 53.54,69.1114183 53.713,69.1154183 L56.467,69.1824183 C55.882,77.2834183 55.795,85.9564183 56.258,93.7324183 C51.596,93.9414183 46.931,94.0994183 42.265,94.2044183 C42.28,94.1504183 42.292,94.0954183 42.298,94.0374183 C42.748,89.4994183 42.684,84.9054183 42.105,80.3854183 C41.803,78.0284183 41.16,75.1394183 38.842,73.6844183 C36.206,72.0284183 32.708,73.2184183 30.849,75.3254183 C28.892,77.5424183 28.32,80.4924183 28.041,82.8154183 C27.577,86.6684183 27.704,90.5524183 28.405,94.3654183 C23.361,94.3714183 18.322,94.3164183 13.291,94.2014183 Z M6.32,67.0234183 C11.044,63.5644183 15.842,59.9024183 20.492,56.3504183 C25.35,52.6384183 30.371,48.8034183 35.29,45.2154183 C44.634,50.8094183 54.003,57.1254183 63.07,63.2404183 L63.468,63.5084183 C63.237,63.9254183 63.023,64.3124183 62.811,64.6934183 C62.63,65.0204183 62.448,65.3484183 62.256,65.6944183 C61.021,64.7724183 59.775,63.8594183 58.52,62.9564183 C58.463,62.9054183 58.401,62.8594183 58.333,62.8224183 C51.083,57.6174183 43.523,52.7674183 35.784,48.3724183 C35.784,48.3724183 35.783,48.3724183 35.783,48.3714183 C35.774,48.3664183 35.765,48.3614183 35.757,48.3574183 C35.739,48.3464183 35.719,48.3414183 35.7,48.3314183 C35.668,48.3164183 35.635,48.2994183 35.601,48.2874183 C35.573,48.2774183 35.545,48.2724183 35.517,48.2654183 C35.486,48.2584183 35.456,48.2494183 35.425,48.2454183 C35.396,48.2414183 35.367,48.2404183 35.338,48.2394183 C35.306,48.2374183 35.274,48.2354183 35.242,48.2374183 C35.216,48.2384183 35.19,48.2434183 35.163,48.2474183 C35.129,48.2524183 35.096,48.2564183 35.062,48.2654183 C35.036,48.2724183 35.012,48.2814183 34.987,48.2904183 C34.955,48.3014183 34.923,48.3124183 34.892,48.3264183 C34.864,48.3404183 34.837,48.3574183 34.809,48.3744183 C34.788,48.3864183 34.767,48.3964183 34.746,48.4104183 C30.213,51.6624183 25.46,55.1264183 20.863,58.4774183 C16.405,61.7254183 11.803,65.0774183 7.399,68.2414183 L6.32,67.0234183 Z M55.687,43.4514183 C55.998,39.4434183 56.32,35.3014183 56.675,31.1754183 C56.71,31.1754183 56.744,31.1764183 56.78,31.1764183 C60.565,31.1764183 64.366,31.0474183 68.144,30.8024183 C68.149,31.8224183 68.156,32.8474183 68.166,33.8764183 L65.949,34.0244183 C65.777,34.0354183 65.646,34.1854183 65.658,34.3574183 C65.668,34.5234183 65.806,34.6494183 65.97,34.6494183 C65.976,34.6494183 65.984,34.6494183 65.991,34.6494183 L68.171,34.5034183 C68.175,34.8594183 68.181,35.2194183 68.185,35.5764183 L66.801,35.5124183 C66.632,35.4904183 66.481,35.6374183 66.473,35.8114183 C66.465,35.9824183 66.599,36.1294183 66.772,36.1374183 L68.194,36.2024183 C68.31,45.3254183 68.591,54.7134183 68.868,63.8504183 C69.011,68.5824183 69.152,73.2754183 69.269,77.8904183 C67.782,78.6644183 66.498,79.9084183 65.699,81.4714183 C64.899,83.0364183 64.59,84.8534183 64.75,86.6894183 C62.991,86.5284183 61.197,87.3484183 60.195,88.8284183 C59.254,90.2214183 59.131,92.0434183 59.786,93.5644183 C59.236,93.5914183 58.685,93.6204183 58.134,93.6474183 C57.955,90.6534183 57.867,87.5194183 57.848,84.3414183 C57.926,84.3464183 58.004,84.3534183 58.082,84.3534183 C58.536,84.3534183 58.993,84.2704183 59.413,84.1054183 C59.574,84.0424183 59.654,83.8604183 59.591,83.6994183 C59.528,83.5384183 59.346,83.4584183 59.185,83.5224183 C58.763,83.6874183 58.299,83.7504183 57.844,83.7144183 C57.843,83.2274183 57.838,82.7434183 57.84,82.2554183 L59.609,82.2114183 C59.782,82.2074183 59.918,82.0644183 59.914,81.8914183 C59.91,81.7184183 59.788,81.5794183 59.593,81.5854183 L57.848,81.6294183 C57.893,76.1324183 58.172,70.5784183 58.67,65.3754183 C59.786,66.1884183 60.894,67.0094183 61.994,67.8394183 C62.003,67.8464183 62.014,67.8484183 62.023,67.8554183 C62.052,67.8744183 62.077,67.8964183 62.108,67.9124183 C62.142,67.9314183 62.179,67.9404183 62.214,67.9544183 C62.241,67.9654183 62.267,67.9784183 62.295,67.9864183 C62.382,68.0124183 62.471,68.0284183 62.559,68.0284183 C62.637,68.0284183 62.713,68.0174183 62.788,67.9984183 C62.812,67.9924183 62.834,67.9824183 62.857,67.9744183 C62.907,67.9574183 62.956,67.9394183 63.003,67.9134183 C63.03,67.8994183 63.054,67.8824183 63.078,67.8644183 C63.118,67.8384183 63.156,67.8104183 63.192,67.7774183 C63.217,67.7554183 63.239,67.7314183 63.261,67.7054183 C63.277,67.6884183 63.295,67.6744183 63.309,67.6554183 C63.328,67.6294183 63.342,67.6024183 63.358,67.5744183 C63.366,67.5634183 63.376,67.5544183 63.383,67.5414183 C63.787,66.8064183 64.12,66.2054183 64.453,65.6054183 C64.788,65.0034183 65.122,64.3994183 65.528,63.6614183 C65.536,63.6464183 65.54,63.6304183 65.547,63.6144183 C65.562,63.5844183 65.575,63.5554183 65.586,63.5244183 C65.596,63.4954183 65.604,63.4674183 65.612,63.4394183 C65.619,63.4084183 65.626,63.3774183 65.63,63.3464183 C65.635,63.3164183 65.638,63.2874183 65.639,63.2574183 C65.64,63.2274183 65.64,63.1964183 65.64,63.1664183 C65.638,63.1364183 65.635,63.1074183 65.631,63.0774183 C65.626,63.0474183 65.621,63.0184183 65.614,62.9884183 C65.607,62.9604183 65.598,62.9324183 65.589,62.9034183 C65.578,62.8754183 65.568,62.8474183 65.555,62.8194183 C65.543,62.7924183 65.529,62.7664183 65.514,62.7394183 C65.498,62.7134183 65.482,62.6894183 65.465,62.6634183 C65.447,62.6384183 65.427,62.6144183 65.407,62.5914183 C65.387,62.5684183 65.366,62.5474183 65.344,62.5254183 C65.32,62.5044183 65.295,62.4834183 65.269,62.4644183 C65.256,62.4544183 65.244,62.4414183 65.229,62.4314183 L64.12,61.6834183 C61.022,59.5934183 57.886,57.4814183 54.729,55.3794183 C55.072,51.3664183 55.385,47.3464183 55.687,43.4514183 Z M70.535,26.6924183 L70.512,28.7484183 C64.913,29.1944183 59.24,29.3664183 53.63,29.2624183 L53.687,26.1874183 C59.284,26.1794183 64.946,26.3384183 70.535,26.6924183 Z M63.171,13.0944183 L67.722,24.6564183 C64.113,24.4704183 60.487,24.3574183 56.874,24.3234183 L63.171,13.0944183 Z M73.208,78.9164183 C75.406,79.1364183 77.308,81.0284183 77.492,83.0804183 C76.668,83.0644183 75.855,83.2264183 75.133,83.5854183 C74.755,83.7724183 74.563,84.1804183 74.627,84.5764183 C73.735,84.1254183 72.698,83.9524183 71.71,84.1054183 C71.539,84.1314183 71.422,84.2914183 71.448,84.4624183 C71.474,84.6334183 71.635,84.7504183 71.805,84.7244183 C72.81,84.5694183 73.873,84.7974183 74.724,85.3504183 C75.577,85.9034183 76.218,86.7824183 76.485,87.7634183 C76.523,87.9014183 76.649,87.9934183 76.787,87.9934183 C76.814,87.9934183 76.842,87.9894183 76.869,87.9824183 C77.036,87.9374183 77.135,87.7644183 77.089,87.5974183 C76.856,86.7414183 76.373,85.9534183 75.725,85.3454183 C75.807,85.3294183 75.889,85.3074183 75.967,85.2684183 C76.926,84.7924183 78.211,84.8614183 79.24,85.4454183 C80.225,86.0054183 81.025,87.0274183 81.432,88.2504183 C81.804,89.3624183 81.877,90.6864183 81.643,92.0764183 C81.642,92.0824183 81.643,92.0884183 81.642,92.0944183 C75.066,92.6504183 68.47,93.1074183 61.861,93.4604183 C61.847,93.4354183 61.835,93.4094183 61.818,93.3864183 C61.083,92.3844183 61.056,90.9104183 61.751,89.8814183 C62.448,88.8524183 63.827,88.3284183 65.029,88.6364183 C65.056,88.6434183 65.084,88.6444183 65.112,88.6494183 C65.267,89.2124183 65.454,89.7724183 65.702,90.3164183 C65.86,90.6614183 66.201,90.8654183 66.557,90.8654183 C66.602,90.8654183 66.647,90.8584183 66.692,90.8524183 C66.468,91.2694183 66.308,91.7214183 66.232,92.1914183 C66.205,92.3624183 66.321,92.5234183 66.492,92.5504183 C66.509,92.5534183 66.525,92.5544183 66.542,92.5544183 C66.693,92.5544183 66.826,92.4444183 66.85,92.2904183 C67.105,90.7074183 68.438,89.3694183 70.021,89.1114183 C70.191,89.0844183 70.307,88.9224183 70.279,88.7524183 C70.251,88.5814183 70.092,88.4664183 69.92,88.4934183 C68.992,88.6464183 68.138,89.1174183 67.481,89.7834183 C67.468,89.7004183 67.448,89.6174183 67.411,89.5374183 C66.312,87.1244183 66.297,84.4284183 67.371,82.3254183 C68.496,80.1244183 70.947,78.6924183 73.208,78.9164183 Z M87.987,91.5284183 C86.513,91.6684183 85.037,91.8004183 83.56,91.9304183 C83.76,90.3884183 83.647,88.9504183 83.214,87.6554183 C82.661,85.9984183 81.551,84.5984183 80.167,83.8124183 C79.913,83.6684183 79.649,83.5534183 79.38,83.4504183 C79.408,80.2984183 76.689,77.3764183 73.394,77.0474183 C72.638,76.9714183 71.873,77.0264183 71.13,77.1974183 C71.015,72.7864183 70.882,68.3104183 70.745,63.7934183 C70.413,52.8114183 70.071,41.4614183 70.021,30.6674183 C70.381,30.6404183 70.742,30.6194183 71.101,30.5904183 C71.185,30.5834183 71.265,30.5624183 71.341,30.5344183 C71.371,30.5374183 71.4,30.5444183 71.431,30.5444183 C71.434,30.5444183 71.438,30.5444183 71.442,30.5444183 C71.955,30.5444183 72.374,30.1314183 72.381,29.6154183 L72.424,25.8234183 C72.429,25.3254183 72.044,24.9094183 71.547,24.8764183 C70.962,24.8374183 70.373,24.8104183 69.787,24.7744183 L64.384,11.0474183 L64.802,5.01441831 C65.76,5.07341831 66.716,5.14841831 67.663,5.25041831 C67.697,5.25441831 67.731,5.25641831 67.765,5.25641831 C68.238,5.25641831 68.645,4.89941831 68.697,4.41741831 C68.753,3.90241831 68.38,3.43941831 67.865,3.38341831 C66.892,3.27841831 65.913,3.20341831 64.931,3.14341831 L65.079,1.00441831 C65.115,0.486418312 64.724,0.0384183121 64.207,0.00241831215 C63.686,-0.0345816879 63.242,0.357418312 63.205,0.874418312 L63.055,3.05141831 C62.147,3.01841831 61.239,2.99341831 60.332,2.98841831 C59.814,2.98941831 59.394,3.41141831 59.396,3.93041831 C59.397,4.44741831 59.818,4.86641831 60.335,4.86641831 C60.336,4.86641831 60.337,4.86641831 60.337,4.86641831 C61.197,4.86841831 62.061,4.89041831 62.926,4.92141831 L62.547,10.3904183 C62.533,10.4104183 62.514,10.4274183 62.501,10.4494183 L54.724,24.3184183 C54.069,24.3174183 53.412,24.3094183 52.759,24.3144183 C52.249,24.3174183 51.835,24.7264183 51.826,25.2354183 L51.737,30.0774183 C51.727,30.5594183 52.082,30.9574183 52.547,31.0224183 C52.672,31.0884183 52.813,31.1314183 52.965,31.1344183 C53.572,31.1484183 54.182,31.1484183 54.791,31.1544183 C54.441,35.2424183 54.122,39.3404183 53.814,43.3074183 C53.538,46.8644183 53.252,50.5294183 52.944,54.1944183 C47.442,50.5534183 41.879,46.9734183 36.315,43.6414183 L36.417,36.2694183 L39.131,36.1844183 C39.65,36.1674183 40.057,35.7334183 40.04,35.2154183 C40.024,34.6974183 39.6,34.2794183 39.072,34.3064183 L36.443,34.3894183 L36.476,31.9854183 C36.483,31.4684183 36.069,31.0414183 35.55,31.0344183 C35.546,31.0344183 35.541,31.0344183 35.537,31.0344183 C35.024,31.0344183 34.605,31.4464183 34.598,31.9604183 L34.564,34.4474183 L30.625,34.5714183 C30.106,34.5884183 29.699,35.0214183 29.715,35.5394183 C29.732,36.0484183 30.149,36.4494183 30.654,36.4494183 C30.664,36.4494183 30.674,36.4494183 30.683,36.4484183 L34.538,36.3274183 L34.439,43.5214183 C34.415,43.5354183 34.39,43.5464183 34.367,43.5634183 C29.373,47.2014183 24.279,51.0934183 19.351,54.8574183 C14.437,58.6124183 9.356,62.4944183 4.383,66.1184183 C4.371,66.1264183 4.362,66.1384183 4.351,66.1474183 C4.339,66.1564183 4.325,66.1634183 4.313,66.1744183 C4.301,66.1854183 4.291,66.1984183 4.279,66.2114183 C4.256,66.2334183 4.234,66.2574183 4.214,66.2814183 C4.194,66.3054183 4.176,66.3294183 4.159,66.3554183 C4.142,66.3804183 4.126,66.4054183 4.112,66.4334183 C4.097,66.4604183 4.084,66.4874183 4.072,66.5174183 C4.061,66.5434183 4.051,66.5704183 4.042,66.5984183 C4.033,66.6284183 4.025,66.6584183 4.019,66.6894183 C4.013,66.7174183 4.009,66.7454183 4.006,66.7744183 C4.002,66.8054183 4,66.8354183 4,66.8654183 C4,66.8964183 4.001,66.9254183 4.003,66.9554183 C4.006,66.9854183 4.01,67.0154183 4.015,67.0444183 C4.02,67.0744183 4.027,67.1044183 4.035,67.1334183 C4.044,67.1624183 4.054,67.1914183 4.065,67.2204183 C4.077,67.2484183 4.089,67.2764183 4.103,67.3044183 C4.117,67.3314183 4.133,67.3584183 4.15,67.3854183 C4.16,67.3994183 4.166,67.4154183 4.177,67.4304183 C4.185,67.4414183 4.196,67.4484183 4.204,67.4594183 C4.214,67.4724183 4.221,67.4864183 4.233,67.4994183 L6.533,70.0964183 C6.718,70.3064183 6.976,70.4124183 7.236,70.4124183 C7.457,70.4124183 7.679,70.3354183 7.859,70.1774183 C7.862,70.1744183 7.864,70.1704183 7.867,70.1674183 C7.948,70.1394183 8.028,70.1034183 8.101,70.0504183 C9.25,69.2264183 10.413,68.3884183 11.584,67.5414183 C10.918,76.3774183 10.855,85.3224183 11.408,94.1594183 C9.534,94.1114183 7.662,94.0564183 5.791,93.9914183 C5.274,93.9664183 4.839,94.3794183 4.821,94.8984183 C4.803,95.4164183 5.208,95.8514183 5.727,95.8684183 C13.049,96.1224183 20.39,96.2494183 27.745,96.2494183 C47.916,96.2494183 68.16,95.2964183 88.164,93.3984183 C88.681,93.3494183 89.059,92.8904183 89.01,92.3744183 C88.961,91.8584183 88.499,91.4734183 87.987,91.5284183 L87.987,91.5284183 Z" id="Fill-5" fill="#2F2F2F"></path>
            <path d="M17.011,76.8554183 C17.065,75.4754183 17.202,73.9444183 18.137,73.2514183 C18.545,72.9474183 19.069,72.8804183 19.595,72.9644183 L19.442,77.6564183 L16.997,77.7244183 C16.996,77.4294183 16.999,77.1384183 17.011,76.8554183 Z M21.443,74.0004183 C22.125,74.8244183 22.508,75.9694183 22.63,77.5694183 L20.069,77.6404183 L20.216,73.1344183 C20.692,73.3234183 21.133,73.6254183 21.443,74.0004183 Z M20.048,78.2674183 L22.661,78.1954183 C22.662,78.2264183 22.665,78.2534183 22.666,78.2844183 C22.698,79.4104183 22.689,80.4154183 22.679,81.5804183 C22.676,81.8914183 22.674,82.2144183 22.671,82.5534183 C21.753,82.5284183 20.833,82.5084183 19.91,82.5094183 L20.048,78.2674183 Z M17.072,80.1284183 C17.045,79.5384183 17.019,78.9404183 17.005,78.3504183 L19.422,78.2834183 L19.283,82.5194183 C18.571,82.5244183 17.859,82.5434183 17.149,82.5644183 C17.145,81.7544183 17.109,80.9324183 17.072,80.1284183 Z M22.89,72.8034183 C21.549,71.1834183 18.87,70.3714183 17.017,71.7424183 C15.283,73.0294183 15.186,75.4694183 15.134,76.7794183 C15.089,77.9004183 15.143,79.0764183 15.196,80.2144183 C15.246,81.3124183 15.298,82.4464183 15.257,83.4864183 C15.257,83.4994183 15.26,83.5114183 15.26,83.5244183 C15.26,83.5364183 15.257,83.5484183 15.257,83.5614183 C15.258,83.5814183 15.263,83.6004183 15.265,83.6194183 C15.268,83.6504183 15.272,83.6814183 15.278,83.7104183 C15.284,83.7414183 15.293,83.7714183 15.302,83.8014183 C15.311,83.8294183 15.32,83.8574183 15.331,83.8844183 C15.343,83.9124183 15.357,83.9404183 15.372,83.9674183 C15.386,83.9924183 15.399,84.0184183 15.415,84.0414183 C15.432,84.0674183 15.451,84.0914183 15.471,84.1154183 C15.489,84.1374183 15.507,84.1594183 15.527,84.1804183 C15.548,84.2014183 15.572,84.2214183 15.595,84.2404183 C15.617,84.2594183 15.639,84.2774183 15.663,84.2944183 C15.688,84.3124183 15.715,84.3264183 15.742,84.3414183 C15.767,84.3564183 15.792,84.3704183 15.819,84.3824183 C15.847,84.3954183 15.878,84.4034183 15.908,84.4134183 C15.935,84.4224183 15.962,84.4324183 15.991,84.4394183 C16.023,84.4454183 16.056,84.4484183 16.089,84.4524183 C16.113,84.4554183 16.135,84.4614183 16.158,84.4624183 C16.171,84.4634183 16.183,84.4634183 16.195,84.4634183 L16.197,84.4634183 C16.208,84.4634183 16.221,84.4634183 16.233,84.4624183 C18.611,84.3674183 21.02,84.3604183 23.392,84.4424183 C23.399,84.4424183 23.405,84.4414183 23.411,84.4414183 C23.474,84.4554183 23.538,84.4634183 23.605,84.4634183 C23.606,84.4634183 23.606,84.4634183 23.606,84.4634183 C24.125,84.4634183 24.545,84.0424183 24.546,83.5244183 C24.547,82.8164183 24.552,82.1864183 24.557,81.5974183 C24.567,80.4144183 24.576,79.3934183 24.544,78.2324183 C24.501,76.7074183 24.284,74.4864183 22.89,72.8034183 L22.89,72.8034183 Z" id="Fill-6" fill="#2F2F2F"></path>
            <path d="M46.096,76.8554183 C46.15,75.4754183 46.286,73.9444183 47.222,73.2514183 C47.63,72.9474183 48.154,72.8804183 48.68,72.9644183 L48.527,77.6564183 L46.081,77.7244183 C46.081,77.4294183 46.084,77.1384183 46.096,76.8554183 Z M50.528,74.0004183 C51.21,74.8244183 51.592,75.9694183 51.714,77.5694183 L49.153,77.6404183 L49.301,73.1344183 C49.777,73.3234183 50.218,73.6254183 50.528,74.0004183 Z M48.368,82.5194183 C47.655,82.5244183 46.944,82.5434183 46.233,82.5644183 C46.23,81.7544183 46.194,80.9324183 46.157,80.1284183 C46.13,79.5384183 46.103,78.9404183 46.09,78.3504183 L48.506,78.2834183 L48.368,82.5194183 Z M51.751,78.2844183 C51.783,79.4104183 51.774,80.4154183 51.764,81.5804183 C51.761,81.8914183 51.758,82.2144183 51.756,82.5534183 C50.838,82.5284183 49.918,82.5084183 48.994,82.5094183 L49.133,78.2674183 L51.746,78.1954183 C51.747,78.2264183 51.75,78.2534183 51.751,78.2844183 Z M44.342,83.4864183 C44.341,83.4994183 44.344,83.5114183 44.344,83.5244183 C44.344,83.5364183 44.341,83.5484183 44.342,83.5614183 C44.343,83.5814183 44.348,83.6004183 44.35,83.6194183 C44.353,83.6504183 44.357,83.6814183 44.363,83.7104183 C44.369,83.7414183 44.377,83.7714183 44.387,83.8014183 C44.395,83.8294183 44.404,83.8574183 44.415,83.8844183 C44.428,83.9124183 44.442,83.9404183 44.457,83.9674183 C44.471,83.9924183 44.484,84.0184183 44.5,84.0414183 C44.517,84.0674183 44.536,84.0914183 44.556,84.1154183 C44.574,84.1374183 44.592,84.1594183 44.612,84.1804183 C44.633,84.2014183 44.656,84.2214183 44.68,84.2404183 C44.702,84.2594183 44.723,84.2774183 44.747,84.2944183 C44.773,84.3124183 44.799,84.3264183 44.826,84.3414183 C44.851,84.3564183 44.876,84.3704183 44.903,84.3824183 C44.932,84.3954183 44.962,84.4034183 44.993,84.4134183 C45.02,84.4224183 45.047,84.4324183 45.076,84.4394183 C45.107,84.4454183 45.141,84.4484183 45.174,84.4524183 C45.197,84.4554183 45.219,84.4614183 45.243,84.4624183 C45.255,84.4634183 45.267,84.4634183 45.28,84.4634183 C45.28,84.4634183 45.28,84.4634183 45.281,84.4634183 C45.293,84.4634183 45.306,84.4634183 45.318,84.4624183 C47.695,84.3674183 50.104,84.3604183 52.477,84.4424183 C52.484,84.4424183 52.489,84.4414183 52.495,84.4414183 C52.558,84.4554183 52.623,84.4634183 52.69,84.4634183 C52.691,84.4634183 52.691,84.4634183 52.691,84.4634183 C53.209,84.4634183 53.63,84.0424183 53.63,83.5244183 C53.631,82.8164183 53.637,82.1864183 53.641,81.5974183 C53.652,80.4144183 53.661,79.3934183 53.628,78.2324183 C53.586,76.7074183 53.369,74.4864183 51.974,72.8034183 C50.634,71.1834183 47.954,70.3714183 46.102,71.7424183 C44.367,73.0294183 44.27,75.4694183 44.218,76.7794183 C44.174,77.9004183 44.228,79.0764183 44.281,80.2144183 C44.331,81.3124183 44.383,82.4464183 44.342,83.4864183 L44.342,83.4864183 Z" id="Fill-7" fill="#2F2F2F"></path>
            <path d="M60.299,38.8704183 C60.708,38.5664183 61.232,38.4994183 61.758,38.5834183 L61.605,43.2754183 L59.171,43.3424183 C59.171,43.0514183 59.162,42.7534183 59.173,42.4744183 C59.228,41.0944183 59.364,39.5644183 60.299,38.8704183 Z M63.606,39.6194183 C64.287,40.4434183 64.67,41.5894183 64.792,43.1894183 L62.231,43.2594183 L62.378,38.7534183 C62.855,38.9424183 63.295,39.2444183 63.606,39.6194183 Z M62.211,43.8864183 L64.825,43.8154183 C64.826,43.8454183 64.828,43.8724183 64.829,43.9034183 C64.86,45.0284183 64.851,46.0314183 64.842,47.1944183 C64.839,47.5064183 64.836,47.8324183 64.834,48.1724183 C63.915,48.1484183 62.995,48.1274183 62.073,48.1294183 L62.211,43.8864183 Z M59.235,45.7474183 C59.207,45.1574183 59.183,44.5604183 59.17,43.9694183 L61.584,43.9024183 L61.446,48.1384183 C60.733,48.1444183 60.022,48.1624183 59.311,48.1844183 C59.308,47.3744183 59.272,46.5514183 59.235,45.7474183 Z M65.574,50.0614183 C65.636,50.0744183 65.701,50.0824183 65.768,50.0824183 L65.769,50.0824183 C66.287,50.0824183 66.707,49.6624183 66.708,49.1444183 C66.709,48.4334183 66.715,47.8014183 66.72,47.2114183 C66.73,46.0304183 66.739,45.0104183 66.706,43.8514183 C66.664,42.3264183 66.447,40.1064183 65.053,38.4224183 C63.711,36.8024183 61.031,35.9904183 59.181,37.3614183 C57.445,38.6494183 57.348,41.0894183 57.296,42.3994183 C57.252,43.5214183 57.306,44.6964183 57.358,45.8344183 C57.409,46.9314183 57.461,48.0664183 57.42,49.1064183 C57.419,49.1184183 57.422,49.1304183 57.422,49.1434183 C57.422,49.1554183 57.419,49.1674183 57.42,49.1804183 C57.421,49.2004183 57.426,49.2194183 57.428,49.2384183 C57.431,49.2704183 57.434,49.3004183 57.441,49.3294183 C57.447,49.3604183 57.456,49.3914183 57.465,49.4204183 C57.473,49.4484183 57.482,49.4764183 57.494,49.5024183 C57.506,49.5324183 57.52,49.5604183 57.536,49.5884183 C57.549,49.6124183 57.562,49.6374183 57.577,49.6604183 C57.595,49.6874183 57.615,49.7114183 57.635,49.7354183 C57.653,49.7574183 57.67,49.7784183 57.689,49.7984183 C57.711,49.8204183 57.735,49.8414183 57.759,49.8604183 C57.781,49.8794183 57.802,49.8974183 57.825,49.9134183 C57.851,49.9314183 57.878,49.9464183 57.906,49.9614183 C57.931,49.9754183 57.955,49.9894183 57.981,50.0004183 C58.011,50.0144183 58.041,50.0244183 58.073,50.0334183 C58.099,50.0424183 58.125,50.0514183 58.153,50.0584183 C58.186,50.0654183 58.219,50.0674183 58.253,50.0714183 C58.276,50.0744183 58.298,50.0804183 58.322,50.0814183 C58.333,50.0824183 58.346,50.0824183 58.358,50.0824183 C58.359,50.0824183 58.359,50.0824183 58.359,50.0824183 C58.371,50.0824183 58.384,50.0824183 58.396,50.0814183 C60.774,49.9874183 63.182,49.9814183 65.556,50.0624183 C65.561,50.0634183 65.567,50.0614183 65.574,50.0614183 L65.574,50.0614183 Z" id="Fill-8" fill="#2F2F2F"></path>
            <path d="M52.332,68.9534183 L52.495,68.9534183 C52.669,68.9534183 52.808,68.8134183 52.808,68.6404183 C52.808,68.4674183 52.669,68.3274183 52.495,68.3274183 L52.332,68.3274183 C52.16,68.3274183 52.019,68.4674183 52.019,68.6404183 C52.019,68.8134183 52.16,68.9534183 52.332,68.9534183" id="Fill-9" fill="#2F2F2F"></path>
            <path d="M17.925,88.0024183 C17.755,87.9834183 17.59,88.0824183 17.561,88.2464183 C17.456,88.1354183 17.282,88.1144183 17.152,88.2054183 C17.011,88.3054183 16.977,88.5004183 17.077,88.6424183 C17.187,88.7974183 17.368,88.8844183 17.565,88.8844183 C17.619,88.8844183 17.674,88.8774183 17.729,88.8644183 C17.985,88.8024183 18.171,88.6074183 18.204,88.3674183 C18.228,88.1954183 18.096,88.0254183 17.925,88.0024183" id="Fill-10" fill="#2F2F2F"></path>
            <path d="M29.045,60.1494183 C29.037,59.9764183 28.878,59.8514183 28.72,59.8494183 L25.618,59.9774183 C25.446,59.9844183 25.311,60.1304183 25.319,60.3034183 C25.325,60.4724183 25.464,60.6034183 25.631,60.6034183 C25.636,60.6034183 25.64,60.6034183 25.644,60.6034183 L28.745,60.4754183 C28.918,60.4674183 29.052,60.3214183 29.045,60.1494183" id="Fill-11" fill="#2F2F2F"></path>
            <path d="M28.145,61.5854183 C28.118,61.4144183 27.956,61.2954183 27.787,61.3244183 L26.726,61.4924183 C26.555,61.5194183 26.439,61.6794183 26.466,61.8514183 C26.49,62.0044183 26.623,62.1144183 26.775,62.1144183 C26.791,62.1144183 26.807,62.1134183 26.824,62.1104183 L27.885,61.9434183 C28.055,61.9164183 28.172,61.7564183 28.145,61.5854183" id="Fill-12" fill="#2F2F2F"></path>
            <path d="M2.42517082,57.2545412 C1.76017082,56.6845412 0.326170822,55.0635412 1.84117082,54.7075412 C2.82117082,54.4765412 4.20417082,55.1405412 5.00917082,55.6035412 C5.45417082,55.8585412 5.92517082,55.3545412 5.69417082,54.9195412 C5.37417082,54.3165412 5.09217082,53.6945412 4.93117082,53.0295412 C4.81117082,52.5345412 4.40417082,50.1505412 6.15117082,50.9865412 C7.05917082,51.4215412 7.32717082,53.1125412 7.41617082,53.9805412 C7.59717082,55.7525412 7.48917082,57.5405412 7.64217082,59.3135412 C7.69717082,59.9495412 8.69717082,59.9555412 8.64217082,59.3135412 C8.40517082,56.5625412 9.33117082,51.7435412 6.47617082,49.9665412 C5.50017082,49.3585412 4.48217082,49.7425412 4.02617082,50.7805412 C3.36717082,52.2795412 4.12517082,54.0965412 4.83017082,55.4235412 C5.05817082,55.1955412 5.28617082,54.9675412 5.51417082,54.7395412 C4.09117082,53.9205412 -0.840829178,52.4705412 0.124170822,55.6735412 C1.14617082,59.0655412 5.12217082,59.7125412 8.14217082,59.8135412 C8.78617082,59.8345412 8.78517082,58.8345412 8.14217082,58.8135412 C6.16617082,58.7475412 3.99517082,58.6005412 2.42517082,57.2545412 Z" id="Fill-696" fill="#2F2F2F"></path>
            <path d="M11.3791708,49.1255412 C11.2311708,48.6705412 10.8791708,47.7095412 11.0171708,47.2595412 C11.3811708,46.0805412 12.1801708,48.3755412 12.2861708,48.7105412 C12.4481708,49.2185412 13.3261708,49.1645412 13.2691708,48.5765412 C13.2261708,48.1455412 13.1401708,47.5415412 13.3111708,47.1345412 C13.4041708,46.9135412 13.8371708,46.1865412 14.1211708,46.2745412 C14.7431708,46.4685412 14.2871708,48.5915412 14.1821708,48.9635412 C13.8201708,50.2495412 13.1831708,51.4535412 12.7201708,52.7045412 C12.4961708,53.3095412 13.4621708,53.5695412 13.6841708,52.9705412 C14.4021708,51.0315412 16.6271708,47.4495412 14.7771708,45.5005412 C13.0081708,43.6335412 12.1641708,47.5135412 12.2691708,48.5765412 C12.5961708,48.5325412 12.9231708,48.4885412 13.2511708,48.4435412 C12.9721708,47.5655412 12.4721708,46.2235412 11.5661708,45.8085412 C10.8751708,45.4915412 10.2741708,45.9295412 10.0731708,46.6015412 C9.40817082,48.8205412 11.3491708,51.7645412 12.8481708,53.1905412 C13.3151708,53.6345412 14.0231708,52.9285412 13.5551708,52.4835412 C12.5601708,51.5375412 11.8061708,50.4385412 11.3791708,49.1255412 Z" id="Fill-697" fill="#2F2F2F"></path>
        </g>
    </g>
</svg>