<?xml version="1.0" encoding="UTF-8"?>
<svg width="77px" height="78px" viewBox="0 0 77 78" version="1.1" xmlns="http://www.w3.org/2000/svg" xmlns:xlink="http://www.w3.org/1999/xlink">
    <title>Group 3</title>
    <g id="Page-1" stroke="none" stroke-width="1" fill="none" fill-rule="evenodd">
        <g id="Group-3">
            <path d="M15.321,39.702 C13.74,50.268 18.295,61.002 27.341,66.685 C30.127,68.435 33.184,69.603 36.576,69.815 C39.696,70.009 42.81,69.24 45.721,68.1 C51.813,65.718 57.413,61.461 60.151,55.52 C62.888,49.579 62.205,41.871 57.529,37.298 C53.997,33.845 48.826,32.555 45.106,29.306 C40.949,25.675 39.141,20.125 36.217,15.445 C32.908,10.151 26.453,5.445 20.611,9.258 C18.803,10.437 17.517,12.265 16.778,14.292 C14.686,20.036 16.327,25.844 16.198,31.643 C16.139,34.29 15.726,37.001 15.321,39.702" id="Fill-218" fill="#C7DBCC" transform="translate(38.385344, 38.858155) rotate(-41.000000) translate(-38.385344, -38.858155) "></path>
            <path d="M56.385,17.759 C56.385,20.32 54.309,22.395 51.749,22.395 C49.189,22.395 47.113,20.32 47.113,17.759 C47.113,15.199 49.189,13.123 51.749,13.123 C54.309,13.123 56.385,15.199 56.385,17.759" id="Fill-219" fill="#C7DBCC"></path>
            <path d="M10.0126716,25.1049519 C12.0184602,37.5302886 14.0215956,49.9556254 16.0273842,62.3796323 C16.0804474,62.7067898 16.5036264,63.0366071 16.8352713,62.9967099 C28.547644,61.6322236 40.2255256,59.9871266 51.8569769,58.0494496 C54.7104499,57.5720124 57.563923,57.0786163 60.4120897,56.5679313 C62.5691084,56.1809279 65.4464599,56.135711 65.9028034,53.4625946 C66.0871979,52.3773891 65.9598463,51.2296779 65.9200489,50.1338332 C65.8696389,48.7081711 65.8033099,47.282509 65.7184088,45.8581768 C65.5525863,43.0228115 65.323088,40.1914359 65.0431797,37.36405 C64.4183606,31.0815614 63.5401648,24.8243411 62.4364504,18.6070181 C62.2480761,17.544421 60.632302,17.9939302 60.8206763,19.0538674 C62.6725816,29.5069496 63.9261995,40.0970124 64.2631508,50.7123434 C64.2923355,51.6020523 64.5987755,53.1966128 63.9421185,53.9400318 C63.5905748,54.3390044 62.8967736,54.4108195 62.4085923,54.5065729 C61.664381,54.650203 60.91619,54.7778743 60.1706522,54.9108651 C57.4577966,55.3976117 54.7409613,55.8697293 52.0227994,56.325888 C46.5174934,57.2475147 41.0002482,58.1066357 35.4750435,58.8979313 C29.2719565,59.7876402 23.0595835,60.592235 16.8352713,61.3170352 C17.1058936,61.5218412 17.3751893,61.727977 17.644485,61.9341129 C15.6386964,49.5087761 13.6329078,37.0834393 11.6284458,24.6581025 C11.457317,23.5928457 9.84154282,24.0450146 10.0126716,25.1049519" id="Fill-38" fill="#2F2F2F"></path>
            <path d="M11.0580287,25.9901766 C19.5824204,24.7578152 28.1081451,23.5240551 36.6325368,22.290295 C45.1102743,21.0649277 53.6093394,19.7528336 62.1857172,19.7668218 C63.270761,19.7682206 63.272094,18.0015097 62.1857172,18.0001109 C53.5986756,17.9861227 45.0889466,19.2982168 36.6005453,20.5263816 C27.937524,21.7797253 19.2731696,23.0330689 10.6101482,24.2864126 C9.54110022,24.4416817 9.99564558,26.1440469 11.0580287,25.9901766" id="Fill-39" fill="#2F2F2F"></path>
            <path d="M11.2914888,25.8598641 C18.0862921,31.3091321 25.3322918,36.1811186 32.9744313,40.3643951 C33.9359094,40.8906609 34.9027589,41.4061866 35.8749797,41.9109722 C36.6538307,42.3137267 37.5293666,42.9151734 38.4250452,42.9916967 C39.2602958,43.0641925 39.9088906,42.6520405 40.5292857,42.1432273 C41.3712505,41.4478046 42.1783012,40.7053939 42.9893805,39.9764083 C46.3370968,36.979915 49.581414,33.8679655 52.7156177,30.6499572 C56.2150757,27.0573874 59.5721919,23.3292235 62.7896521,19.4842608 C63.4852466,18.6519016 62.2914561,17.4449807 61.5904902,18.2840525 C56.282218,24.6274354 50.5885488,30.6432447 44.5323111,36.2750947 C43.0054946,37.6954754 41.4585355,39.0903484 39.8874051,40.4597136 C39.6148072,40.6986813 39.249553,41.1349986 38.8842987,41.2517974 C38.3391031,41.4236393 37.701251,40.9443615 37.2473688,40.7107639 C36.3288618,40.2408837 35.4184119,39.7589208 34.5106477,39.2689029 C30.8836193,37.3074886 27.3371617,35.1930277 23.887389,32.9335751 C19.9582201,30.3613165 16.1552789,27.5984209 12.4906508,24.6609983 C11.6460003,23.9843707 10.4387813,25.176524 11.2914888,25.8598641" id="Fill-40" fill="#2F2F2F"></path>
            <path d="M18.5763717,62.6094989 C23.5720111,54.8332567 28.0286854,46.7097285 31.9121329,38.2967955 C32.3667611,37.3128189 30.9317172,36.4472963 30.4744535,37.4380033 C26.5896883,45.8509363 22.1343317,53.9744645 17.1386923,61.7507067 C16.5496523,62.668726 17.991285,63.5221339 18.5763717,62.6094989" id="Fill-41" fill="#2F2F2F"></path>
            <path d="M47.2841406,35.4033873 C53.9917164,40.9926649 59.1806723,47.9478839 64.5950588,54.7081592 C65.2767505,55.5600367 66.4754479,54.3583287 65.8005057,53.5144626 C60.3861191,46.7555225 55.1985131,39.8003034 48.4909373,34.2110259 C47.6567087,33.5153704 46.4431626,34.7037262 47.2841406,35.4033873" id="Fill-42" fill="#2F2F2F"></path>
            <path d="M38.7644818,37.8966482 C36.585702,36.9138615 34.8868121,35.4401319 34.0426845,33.7583147 C33.8632243,33.400692 33.6797761,33.0295572 33.6664828,32.6494142 C33.6598361,32.43412 33.6531894,32.0467705 33.9536191,31.9071446 C34.8429441,31.496374 35.8784959,33.3097099 36.0526388,33.6493163 C36.2985657,34.1276479 37.5228831,34.2501584 37.6730979,33.6493163 C37.7980554,33.1484645 38.0001143,32.6566207 38.3351067,32.1999087 C38.602303,31.8359804 38.9532474,31.3792683 39.5261907,31.1964034 C40.6016226,30.8540945 41.3593434,31.8693104 41.3380741,32.4548387 C41.3048407,33.4385262 40.3370849,34.3285291 39.7428723,35.189706 C39.0569355,36.1833024 38.5278602,37.2201378 38.1662812,38.2894025 C37.9256716,39.0028461 39.5434721,39.3073208 39.785411,38.5920756 C40.2413728,37.2462614 40.992447,36.0130488 41.9189934,34.7879436 C42.7378637,33.7051667 43.4530458,32.4926728 42.6461396,31.3072033 C41.9588734,30.2928882 40.2373848,29.6406998 38.6780751,30.2136167 C37.10946,30.789236 36.3317991,32.2269331 36.0526388,33.3466433 C36.5936781,33.3466433 37.133388,33.3466433 37.6730979,33.3466433 C37.1294,32.2908908 36.0539681,30.6694279 34.0626245,30.7252783 C32.3012559,30.7739222 31.841306,32.1008193 32.0446943,33.0664905 C32.2839745,34.208721 33.1148088,35.3617612 34.0666125,36.3058129 C35.0981764,37.3282353 36.3969365,38.1939163 37.9176956,38.878534 C38.8189846,39.2857013 39.6617829,38.3011131 38.7644818,37.8966482" id="Fill-43" fill="#2F2F2F"></path>
        </g>
    </g>
</svg>