<?xml version="1.0" encoding="UTF-8"?>
<svg width="77px" height="89px" viewBox="0 0 77 89" version="1.1" xmlns="http://www.w3.org/2000/svg" xmlns:xlink="http://www.w3.org/1999/xlink">
    <title>Group 5</title>
    <g id="Page-1" stroke="none" stroke-width="1" fill="none" fill-rule="evenodd">
        <g id="Group-5" transform="translate(0.324073, 0.966230)">
            <path d="M22.0659273,71.7977701 C16.9649273,66.0047701 13.3599273,59.0127701 11.6719273,51.6377701 C10.8729273,48.1497701 10.5319273,44.3657701 12.1169273,41.1737701 C14.3479273,36.6787701 19.8409273,34.4047701 22.2619273,30.0037701 C23.7289273,27.3337701 23.8959273,24.1907701 24.6289273,21.2447701 C25.9169273,16.0667701 29.0739273,11.3617701 33.4399273,8.11677006 C35.1669273,6.83377006 40.4629273,6.10677006 44.3349273,9.07077006 C47.5429273,11.5277701 49.9399273,14.9677701 51.3889273,18.6437701 C53.4989273,23.9987701 52.7219273,30.1027701 55.1139273,35.3517701 C56.4479273,38.2777701 58.6809273,40.7387701 60.4819273,43.4307701 C63.7939273,48.3767701 65.6629273,54.2687701 65.2969273,60.0877701 C64.9309273,65.9067701 62.2329273,71.6077701 57.6149273,75.3297701 C52.7189273,79.2767701 45.9419273,80.7897701 39.5369273,79.9947701 C33.1319273,79.1997701 29.3799273,77.9617701 24.4329273,73.9157701 L22.0659273,71.7977701" id="Fill-497" fill="#C7DBCC" transform="translate(38.171162, 43.599756) rotate(-19.000000) translate(-38.171162, -43.599756) "></path>
            <path d="M73.6289273,26.728 C73.6289273,29.339 71.5119273,31.456 68.9009273,31.456 C66.2899273,31.456 64.1729273,29.339 64.1729273,26.728 C64.1729273,24.117 66.2899273,22 68.9009273,22 C71.5119273,22 73.6289273,24.117 73.6289273,26.728" id="Fill-498" fill="#C7DBCC"></path>
            <path d="M43.6759273,38.0337701 C44.1096284,37.1815962 44.8962883,37.2011614 45.5076223,37.035944 C47.8676023,36.4055092 50.1353054,35.5402918 52.4122362,34.6924657 C53.0051148,34.4729005 53.6741218,34.2881179 54.1308922,33.8989875 C57.2083245,31.2772483 61.4922763,30.7011614 64.7773315,28.0337701 C64.9180536,30.0555092 62.6411228,30.7272483 62.521163,32.5663788 C64.1106314,32.6533353 65.0149443,31.6055092 66.6759273,31.5033353 C60.10351,37.9729005 51.7616845,37.3315962 43.6759273,38.0337701 Z M61.6759273,41.8516759 C61.6759273,43.4740935 61.6759273,45.2317127 61.6759273,46.9870008 C61.6759273,48.7422888 61.6759273,50.4975769 61.6759273,52.3111415 C55.1501002,52.7563739 48.7914235,52.9661693 42.198272,53.0337701 C42.0171925,49.1315758 41.8453991,45.4368459 41.6759273,41.7584335 C45.4716324,40.7840504 60.1924682,40.7700641 61.6759273,41.8516759 Z M61.5898797,69.2615687 C61.5355358,70.5649616 60.7475488,71.7449977 59.1806321,71.77991 C54.4844107,71.8823194 49.785925,71.9591265 45.0874392,72.0336061 C44.8134552,72.0382611 44.5394712,71.9428341 44.1341561,71.870682 C43.6586467,67.4926784 43.1854016,63.1449321 42.6759273,58.4457353 C49.0658679,59.2091511 55.1433309,58.8134783 61.6442237,58.0337701 C61.6442237,62.0114458 61.7438542,65.642326 61.5898797,69.2615687 Z M42.8922486,57.0337701 C42.5498706,56.4355544 42.7173781,55.8664312 42.7136966,55.2991264 C43.4223822,54.990018 44.0463936,54.9481974 44.6759273,55.188211 C44.064801,55.8209741 43.508897,56.3955521 42.8922486,57.0337701 Z M50.9857445,57.0337701 C50.2781372,57.0337701 49.5471555,57.0337701 48.8161738,57.0337701 C48.7694249,56.9312061 48.7226761,56.8306145 48.6759273,56.7300229 C49.7405256,55.8661185 50.805124,55.0041866 51.8803471,54.1323927 C52.4392082,54.0396906 53.0001942,53.9213476 53.6759273,54.2546805 C52.764325,55.1955079 51.8930968,56.0949151 50.9857445,57.0337701 Z M59.9680518,54.135033 C60.6022093,54.0357944 61.1081617,53.8882086 61.6759273,54.3742236 C60.7372826,55.6821383 59.3888393,56.5065826 58.7066049,57.7508828 C57.9648467,58.0994904 57.4016599,58.0689554 56.6759273,57.9595384 C57.5916782,56.394621 58.9469895,55.4912947 59.9680518,54.135033 Z M54.6658338,57.8695194 C53.7327497,58.0473925 52.8669553,58.123285 51.6759273,57.8766343 C52.9634039,56.5912049 54.1903198,55.6496634 55.098731,54.4045518 C55.8635908,54.0772654 56.6082637,53.8756759 57.6759273,54.1934758 C56.3570488,55.3887829 55.3925628,56.5437721 54.6658338,57.8695194 Z M47.4689148,54.1905204 C48.1053221,53.9680864 48.7513355,54.0024626 49.6759273,54.168277 C48.7057063,55.2298939 47.4136794,55.897196 46.6908168,56.8920826 C45.9463403,57.0963175 45.3195392,57.1064281 44.6759273,56.7444673 C45.7229974,55.9679704 46.7436506,55.2096726 47.7643038,54.453397 C47.6658408,54.3664455 47.5673778,54.2774719 47.4689148,54.1905204 Z M42.6412617,71.8335823 C41.3929573,72.0948031 40.2458668,72.0876789 38.6759273,71.8858264 C40.0569343,70.8361937 41.1477948,70.0074113 42.427588,69.0337701 C42.724482,70.1546448 42.6952424,70.9620546 42.6412617,71.8335823 Z M37.6983079,68.9956469 C38.7382232,67.8592833 39.9943136,66.9648551 41.4961607,66.0337701 C41.5644265,66.9281982 41.6190391,67.6368981 41.6759273,68.3651484 C40.4312146,69.2620203 39.2570432,70.1051288 37.9690955,71.0337701 C37.5708784,70.2933009 37.6914813,69.6847965 37.6983079,68.9956469 Z M37.6915307,65.8842147 C37.6611333,65.462226 37.6845159,65.0353869 37.6845159,64.5624685 C38.7343951,63.3474322 39.8170098,62.1614984 41.1661864,61.0337701 C41.7858255,62.1202697 41.5052342,63.2237458 41.6759273,64.305395 C40.4623699,65.1857507 39.2745333,66.051555 37.9206803,67.0337701 C37.8061055,66.4711185 37.712575,66.1800918 37.6915307,65.8842147 Z M37.7718353,61.2010704 C38.9274867,60.4684976 39.8570324,59.2137447 41.3618915,59.0337701 C41.4648953,59.2314887 41.5704113,59.4317422 41.6759273,59.6294608 C40.4624933,60.7549361 39.2490593,61.8829462 38.0079901,63.0337701 C37.5005084,62.4101959 37.7090281,61.8499931 37.7718353,61.2010704 Z M37.718223,50.0337701 C37.4380886,48.7357633 38.5687031,46.7377078 40.5397208,45.0337701 C40.767456,45.8310477 40.64855,46.6015873 40.614289,47.3842805 C39.6449029,48.2690642 38.687609,49.1465557 37.718223,50.0337701 Z M39.6759273,52.9739923 C39.9546857,52.3892416 40.6460067,52.227502 41.4599815,52.0337701 C41.7526779,52.3785774 41.7192268,52.6220754 41.5296711,52.8477999 C40.9247652,53.1232903 40.3337972,53.0255356 39.6759273,52.9739923 Z M37.706635,52.0337701 C37.3969186,49.7771946 39.5123018,49.5324281 40.3523822,48.0337701 C40.7896289,48.6800395 40.6985358,49.126631 40.5689812,49.6333406 C39.5426662,50.2796101 38.5163511,50.9752623 37.706635,52.0337701 Z M40.6759273,55.0337701 C40.0523707,56.202689 39.5974053,57.5382746 37.6759273,58.0337701 C38.5304307,56.5337701 39.5789296,55.756743 40.6759273,55.0337701 Z M37.7297724,45.0075171 C39.0357785,44.1507152 39.7556059,42.3631257 41.6759273,42.0337701 C40.8881031,43.9931973 39.1295671,45.1674216 38.1611999,47.0337701 C37.5890895,46.3726722 37.643018,45.7831734 37.7297724,45.0075171 Z M37.7127134,30.653052 C38.098046,24.7822474 40.3899957,20.0299105 45.3725918,16.8747271 C45.9561592,16.5042059 46.5620001,16.1958218 47.2346617,16.0876572 C48.5777576,15.8713281 49.5756132,16.2809726 49.9186261,17.779167 C50.1614079,18.8377989 50.4041898,19.8987322 50.6759273,21.0839397 C43.6085256,22.4946819 40.2674911,27.6336495 38.060181,34.0337701 C37.6347559,32.8876859 37.641438,31.7600128 37.7127134,30.653052 Z M53.6759273,32.0337701 C51.6609204,33.7074773 49.1039627,34.3214613 46.6759273,35.0337701 C48.8413434,33.5873025 51.2192424,32.7329689 53.6759273,32.0337701 Z M43.6759273,35.0337701 C46.892734,32.1740662 50.3568096,29.7843546 54.6759273,29.0337701 C51.4360113,31.8467085 47.1261373,32.6183375 43.6759273,35.0337701 Z M55.0752295,23.5162896 C57.8154324,24.3842205 58.4189028,26.3540257 56.7493012,29.0303408 C55.6854052,27.6594312 54.382356,28.050117 53.1061277,28.5460775 C47.71736,30.6492307 43.0840479,33.8940287 39.3917028,38.5518462 C39.2553631,38.7202856 39.103378,38.8746884 38.9603331,39.0337701 C38.8262286,38.9191377 38.6653031,38.8302391 38.6764785,38.781111 C40.0219941,32.7219711 42.022387,27.1073242 47.8380541,24.0964698 C50.1781784,22.8846418 52.6077058,22.7349179 55.0752295,23.5162896 Z M36.4343017,30.0337701 C34.9857582,26.3199448 32.5842257,23.4430379 29.6759273,21.0345199 C31.8958313,18.157613 33.6313926,18.3906187 34.7368599,21.6859848 C35.456647,23.8258329 35.9589283,26.0465197 36.5374487,28.2386753 C36.6832,28.7902805 36.7953163,29.3632843 36.4343017,30.0337701 Z M35.6759273,72.3952882 C35.371204,72.7448113 34.7684302,72.5965958 34.2323841,72.6165054 C30.1286291,72.7691452 26.0226498,72.9040877 21.9166704,73.0301815 C20.1661798,73.0832736 19.2497857,72.5523524 19.0629481,71.0967433 C18.5624901,67.1612895 18.7938129,63.2015019 18.6759273,59.0337701 C24.4211844,59.2527751 29.9595855,59.1576517 35.6759273,59.5691157 C35.6759273,63.8784265 35.6759273,68.055007 35.6759273,72.3952882 Z M18.7592965,54.2495986 C19.6551551,53.8771252 20.4466666,54.0298661 21.6759273,54.3809021 C20.6833566,55.3696984 19.9274758,56.1253638 19.0138018,57.0337701 C18.5633274,55.9190296 18.6600394,55.0910132 18.7592965,54.2495986 Z M35.3772187,54.0337701 C35.4760396,54.1625531 35.5748604,54.2913362 35.6759273,54.4201193 C34.8381956,55.2172421 33.9173647,55.9388714 33.2615533,56.8647773 C32.7562192,57.0668335 32.2935578,57.1556494 31.6759273,56.7359942 C32.9561069,55.8012067 34.1666628,54.9174884 35.3772187,54.0337701 Z M32.6759273,54.0337701 C31.9588636,55.2111887 30.7775315,55.8688874 30.0774829,56.9129266 C29.3652807,57.0762014 28.7114158,57.0945986 27.6759273,56.8393379 C29.4552175,55.7424069 30.5636278,54.1487524 32.6759273,54.0337701 Z M22.3409758,56.9759413 C21.3506845,56.9284877 20.6370923,57.1875054 19.6759273,56.8830113 C20.8288399,55.8904396 21.8943739,54.9710256 22.9113642,54.0931335 C23.8749564,53.996249 24.7171894,53.9942718 25.6759273,54.2691074 C24.6735001,55.3387912 23.0788399,55.8014641 22.3409758,56.9759413 Z M26.573957,54.1150944 C27.4837392,54.0231331 28.4273963,53.9683942 29.6759273,54.180781 C28.5725743,55.2952641 27.3240434,55.9915423 26.5860552,57.0337701 C25.2383192,57.0337701 24.1688412,57.0337701 22.6759273,57.0337701 C24.156743,55.9258557 25.3423635,55.0390862 26.573957,54.1150944 Z M18.7769206,42.9785424 C19.3013325,42.2574691 19.8602452,42.049107 20.4444584,42.0467658 C25.8334809,42.0280366 31.2225033,42.0350601 36.6759273,42.0350601 C36.6759273,45.5444399 36.6759273,49.2247234 36.6759273,53.0337701 C30.7440925,53.0337701 25.0123622,53.0337701 19.0828275,53.0337701 C18.8804229,49.6554945 18.4917141,46.2350783 18.7769206,42.9785424 Z M29.6759273,31.0337701 C28.7838702,30.6919519 27.959023,30.2386185 27.6759273,29.0337701 C28.6168641,29.2883155 29.1728723,30.1174064 29.6759273,31.0337701 Z M27.5122782,35.4615741 C24.2303308,34.4457313 22.4924361,32.2330491 22.0156291,28.8235276 C21.8396115,27.5746518 21.6078922,26.3438756 21.694787,25.0791626 C21.9242782,21.6945281 24.7405589,20.0791344 27.7439975,21.6198671 C29.4506992,22.4954376 30.6805939,23.9343598 31.8035413,25.4366307 C33.7976641,28.1018041 35.1367343,31.0814589 35.6759273,34.0905257 C34.0828571,32.6516035 32.3538746,31.1131333 30.6560852,29.5407262 C29.8628922,28.8076904 29.0919799,28.0475051 28.1027168,27.5927514 C27.505594,27.3167318 26.8951027,27.303157 26.3715062,27.7963725 C25.8501378,28.2873255 25.823401,28.904976 26.0105589,29.5407262 C26.3581378,30.7239908 27.2582782,31.4344021 28.2564536,31.9887039 C30.9969799,33.5045495 33.254015,35.6154212 35.5110501,37.7692795 C35.0765764,38.2466577 34.7134009,37.9548009 34.3791904,37.8394156 C32.0887343,37.0498184 29.825015,36.1765103 27.5122782,35.4615741 Z M65.5173269,30.3635 C66.0095871,28.5248531 67.2675856,26.9180258 66.8436948,24.7930137 C64.3687196,27.0407538 61.6407773,28.7657636 58.5664295,30.4862279 C60.7952747,24.1361918 60.2711086,23.2930052 53.0421754,21.2339025 C52.7595816,20.3043518 52.4792667,19.3134371 52.1533721,18.3361588 C51.123272,15.2361411 48.6938764,14.1793169 45.8132422,15.7634169 C42.7252206,17.4611538 40.1818759,19.7611669 38.8258811,23.1384588 C38.4111063,24.1725556 37.9780996,25.1998342 37.5428139,26.2521129 C36.9001407,25.9089292 36.9616733,25.3771079 36.8431662,24.9725602 C36.332674,23.2089138 36.0272903,21.3793579 35.1635559,19.7316213 C33.8850466,17.292971 31.8020564,16.8202411 29.5937221,18.4702505 C28.951049,18.9520714 28.3676294,19.5088927 27.7933257,19.9998046 C22.4719011,19.3952557 19.9559041,21.8907245 20.4344905,27.2089366 C20.5484396,28.4748528 20.8652182,29.6953143 21.1273012,30.931685 C21.6788151,33.5316998 23.2444762,35.2408004 25.6761508,36.154442 C27.8297895,36.9635375 30.0404027,37.6271777 32.2099943,38.3976366 C32.902805,38.6430925 33.7050069,38.7317294 34.4069336,39.4999156 C29.3589869,39.9999184 24.5115906,39.7158259 19.6961001,40.161283 C17.2940523,40.3840115 16.5944046,41.0112878 16.6832849,43.4635745 C16.7379805,45.0135833 17.0843859,46.5272283 17.0821069,48.0931463 C17.0798279,53.7272693 17.0502011,59.363665 17.2940523,64.997788 C17.3783747,66.9432536 17.4307913,68.8864465 17.0843859,70.8387303 C16.8382557,72.23192 16.8587666,73.702383 17.9093776,74.9501173 C18.5543297,74.979663 19.183329,75.0455724 19.8123282,75.031936 C27.4218515,74.8592077 35.0313749,74.6364792 42.6408982,74.5092057 C49.0881404,74.4001142 55.5285456,73.877384 61.9849036,74.218295 C63.6280502,74.3046591 64.3983464,73.3364718 64.184122,71.725099 C64.1020786,71.1023682 64.0564989,70.4682736 64.049662,69.8387246 C63.917481,60.4795804 63.7944159,51.1204363 63.6759088,41.7590194 C63.6622349,40.6908315 63.4708004,39.7067349 62.5911131,38.8953667 C60.5149598,38.595365 58.3681581,39.0453675 56.2236353,38.7021838 C58.9287878,38.0294527 61.5701288,37.3067213 63.9379918,35.8203492 C66.424362,34.2567039 68.8811054,31.0839586 68.662323,29.5680409 C67.5114368,29.2339481 66.7548145,30.520319 65.5173269,30.3635 L65.5173269,30.3635 Z" id="Fill-11" fill="#2F2F2F"></path>
        </g>
    </g>
</svg>