<?xml version="1.0" encoding="UTF-8"?>
<svg width="76px" height="79px" viewBox="0 0 76 79" version="1.1" xmlns="http://www.w3.org/2000/svg" xmlns:xlink="http://www.w3.org/1999/xlink">
    <title>Group 2</title>
    <g id="Page-1" stroke="none" stroke-width="1" fill="none" fill-rule="evenodd">
        <g id="Group-2" transform="translate(1.016826, 1.150152)">
            <path d="M20.2931742,67.9238482 C22.1171742,70.4468482 24.6731742,72.6438482 27.7451742,73.1478482 C33.9061742,74.1578482 38.7821742,68.4448482 43.5241742,64.3828482 C47.2771742,61.1698482 51.6931742,58.7318482 56.4121742,57.2698482 C60.4991742,56.0048482 65.0001742,55.3648482 68.2331742,52.5618482 C71.7161742,49.5428482 72.9211742,44.6738482 73.3501742,40.0838482 C73.6661742,36.6958482 73.5681742,32.9788482 71.4511742,30.3138482 C67.7081742,25.5978482 59.5751742,26.4028482 55.9721742,21.5808482 C53.4381742,18.1898482 54.1291742,13.2158482 51.7701742,9.70284817 C50.8931742,8.39884817 49.6401742,7.37984817 48.2721742,6.60784817 C41.5461742,2.81884817 31.8931742,5.93384817 28.6511742,12.9398482 C25.8991742,18.8838482 27.5301742,26.1218482 24.9141742,32.1278482 C22.6451742,37.3408482 19.7011742,39.4688482 16.9361742,46.9838482 C14.1051742,53.6808482 16.0331742,62.0318482 20.2931742,67.9238482 Z" id="Fill-638" fill="#C7DBCC"></path>
            <path d="M17.1371742,19.4028482 C17.1371742,23.3828482 13.9101742,26.6098482 9.93017423,26.6098482 C5.94917423,26.6098482 2.72317423,23.3828482 2.72317423,19.4028482 C2.72317423,15.4228482 5.94917423,12.1958482 9.93017423,12.1958482 C13.9101742,12.1958482 17.1371742,15.4228482 17.1371742,19.4028482" id="Fill-103" fill="#C7DBCC"></path>
            <path d="M8.29853422,43.5892926 C8.28553422,44.4032926 9.54853422,44.4032926 9.56253422,43.5892926 C9.70053422,35.7452926 9.83653422,27.9012926 9.97353422,20.0572926 C9.98853422,19.2432926 8.72453422,19.2432926 8.71053422,20.0572926 C8.57353422,27.9012926 8.43653422,35.7452926 8.29853422,43.5892926 Z" id="Fill-98" stroke="#2F2F2F" stroke-width="0.5" fill="#2F2F2F"></path>
            <path d="M30.7595342,17.7622926 C31.5565342,17.5992926 31.2195342,16.3812926 30.4235342,16.5442926 C23.4155342,17.9802926 16.3195342,18.9372926 9.18053422,19.4102926 C8.37353422,19.4642926 8.36753422,20.7282926 9.18053422,20.6742926 C16.4305342,20.1942926 23.6415342,19.2212926 30.7595342,17.7622926 Z" id="Fill-99" stroke="#2F2F2F" stroke-width="0.5" fill="#2F2F2F"></path>
            <path d="M29.4555342,24.6132926 C30.2565342,24.4982926 29.9165342,23.2812926 29.1195342,23.3942926 C22.5515342,24.3332926 15.9955342,25.3472926 9.45053422,26.4382926 C8.65053422,26.5712926 8.98953422,27.7892926 9.78653422,27.6572926 C16.3315342,26.5662926 22.8875342,25.5522926 29.4555342,24.6132926 Z" id="Fill-100" stroke="#2F2F2F" stroke-width="0.5" fill="#2F2F2F"></path>
            <path d="M28.6745342,43.5932926 C28.6815342,44.4062926 29.9455342,44.4082926 29.9385342,43.5932926 C29.8655342,34.8922926 30.3075342,26.1942926 31.2645342,17.5452926 C31.3535342,16.7382926 30.0895342,16.7442926 30.0015342,17.5452926 C29.0445342,26.1942926 28.6015342,34.8922926 28.6745342,43.5932926 Z" id="Fill-101" stroke="#2F2F2F" stroke-width="0.5" fill="#2F2F2F"></path>
            <path d="M6.09553422,41.2842926 C5.17453422,41.2082926 4.24453422,41.4722926 3.45053422,41.9322926 C1.96753422,42.7922926 0.827534216,44.3072926 0.239534216,45.9022926 C-0.457465784,47.7942926 0.438534216,49.9042926 1.99753422,51.0702926 C3.76753422,52.3952926 6.07253422,52.0412926 7.66853422,50.6172926 C9.84253422,48.6742926 10.0005342,45.5362926 9.28653422,42.8902926 C9.07553422,42.1062926 7.85553422,42.4382926 8.06753422,43.2262926 C8.59053422,45.1642926 8.66453422,47.4552926 7.35353422,49.1142926 C6.37153422,50.3582926 4.66153422,51.1272926 3.16653422,50.3232926 C1.90353422,49.6432926 0.972534216,48.0882926 1.33253422,46.6382926 C1.64253422,45.3892926 2.55253422,44.1512926 3.56453422,43.3712926 C4.15753422,42.9142926 4.87753422,42.5712926 5.63553422,42.5382926 C6.59853422,42.4972926 7.48853422,42.9162926 8.23053422,43.5042926 C8.50053422,43.7182926 8.86053422,43.7622926 9.12453422,43.5042926 C9.34653422,43.2862926 9.39053422,42.8232926 9.12453422,42.6112926 C8.23353422,41.9052926 7.24553422,41.3792926 6.09553422,41.2842926 Z" id="Fill-102" stroke="#2F2F2F" stroke-width="0.5" fill="#2F2F2F"></path>
            <path d="M27.3925342,41.0792926 C26.5705342,40.7362926 25.6585342,40.6912926 24.7985342,40.9202926 C23.0945342,41.3752926 21.7415342,42.7382926 21.0845342,44.3412926 C20.2885342,46.2832926 20.4105342,49.1082926 22.4915342,50.2002926 C24.2135342,51.1052926 26.4785342,50.6262926 27.8785342,49.3432926 C29.8785342,47.5112926 30.0845342,44.4432926 29.9965342,41.9132926 C29.9675342,41.1022926 28.7045342,41.0992926 28.7325342,41.9132926 C28.7995342,43.8592926 28.7335342,45.9832926 27.6375342,47.6682926 C26.8315342,48.9082926 25.2715342,49.6582926 23.7915342,49.3362926 C23.1415342,49.1962926 22.5795342,48.8532926 22.2535342,48.2602926 C21.8015342,47.4372926 21.8035342,46.4132926 22.0245342,45.5222926 C22.3745342,44.1052926 23.2735342,42.9212926 24.6125342,42.3202926 C25.2215342,42.0452926 25.9125342,41.9502926 26.5685342,42.1252926 C27.5175342,42.3802926 28.2285342,43.1212926 28.7615342,43.9122926 C29.2135342,44.5832926 30.3085342,43.9512926 29.8525342,43.2752926 C29.2265342,42.3462926 28.4425342,41.5172926 27.3925342,41.0792926 Z" id="Fill-103" stroke="#2F2F2F" stroke-width="0.5" fill="#2F2F2F"></path>
            <path d="M49.2125342,69.8372926 C49.1995342,70.6512926 50.4625342,70.6522926 50.4765342,69.8372926 C50.5865342,63.5652926 50.6965342,57.2922926 50.8055342,51.0192926 C50.8205342,50.2052926 49.5565342,50.2052926 49.5425342,51.0192926 C49.4325342,57.2922926 49.3235342,63.5652926 49.2125342,69.8372926 Z" id="Fill-104" stroke="#2F2F2F" stroke-width="0.5" fill="#2F2F2F"></path>
            <path d="M67.3355342,49.3072926 C68.1315342,49.1442926 67.7945342,47.9252926 67.0005342,48.0882926 C61.4045342,49.2332926 55.7435342,49.9962926 50.0445342,50.3752926 C49.2375342,50.4292926 49.2315342,51.6932926 50.0445342,51.6392926 C55.8545342,51.2532926 61.6315342,50.4742926 67.3355342,49.3072926 Z" id="Fill-105" stroke="#2F2F2F" stroke-width="0.5" fill="#2F2F2F"></path>
            <path d="M66.2925342,54.7842926 C67.0935342,54.6702926 66.7525342,53.4522926 65.9565342,53.5662926 C60.7045342,54.3172926 55.4605342,55.1282926 50.2265342,56.0002926 C49.4265342,56.1332926 49.7665342,57.3512926 50.5625342,57.2182926 C55.7965342,56.3472926 61.0405342,55.5352926 66.2925342,54.7842926 Z" id="Fill-106" stroke="#2F2F2F" stroke-width="0.5" fill="#2F2F2F"></path>
            <path d="M65.5075342,69.8412926 C65.5145342,70.6542926 66.7785342,70.6562926 66.7715342,69.8412926 C66.7135342,62.8822926 67.0685342,55.9272926 67.8325342,49.0112926 C67.9205342,48.2032926 66.6565342,48.2102926 66.5685342,49.0112926 C65.8045342,55.9272926 65.4505342,62.8822926 65.5075342,69.8412926 Z" id="Fill-107" stroke="#2F2F2F" stroke-width="0.5" fill="#2F2F2F"></path>
            <path d="M47.5785342,67.8682926 C46.8205342,67.8062926 46.0505342,68.0252926 45.3985342,68.4042926 C44.1835342,69.1082926 43.2545342,70.3472926 42.7725342,71.6542926 C42.1945342,73.2232926 42.9475342,74.9652926 44.2365342,75.9292926 C45.6985342,77.0232926 47.6105342,76.7212926 48.9245342,75.5462926 C50.6975342,73.9632926 50.8335342,71.4032926 50.2515342,69.2442926 C50.0405342,68.4602926 48.8205342,68.7932926 49.0335342,69.5802926 C49.4385342,71.0842926 49.5085342,72.8742926 48.4945342,74.1662926 C47.7475342,75.1172926 46.4415342,75.7282926 45.2985342,75.1132926 C44.3355342,74.5942926 43.6185342,73.4082926 43.8905342,72.3102926 C44.0075342,71.8382926 44.2325342,71.4202926 44.5365342,70.9622926 C44.8325342,70.5152926 45.2055342,70.0882926 45.6425342,69.7532926 C46.0955342,69.4082926 46.6585342,69.1482926 47.2105342,69.1232926 C47.9425342,69.0932926 48.6275342,69.4082926 49.1955342,69.8602926 C49.4625342,70.0722926 49.8285342,70.1202926 50.0885342,69.8602926 C50.3085342,69.6402926 50.3575342,69.1792926 50.0885342,68.9662926 C49.3485342,68.3782926 48.5335342,67.9472926 47.5785342,67.8682926 Z" id="Fill-108" stroke="#2F2F2F" stroke-width="0.5" fill="#2F2F2F"></path>
            <path d="M64.6585342,67.7152926 C63.9735342,67.4292926 63.2155342,67.3902926 62.5015342,67.5812926 C61.0935342,67.9572926 59.9825342,69.0812926 59.4415342,70.4062926 C58.7855342,72.0122926 58.9115342,74.3342926 60.6265342,75.2352926 C62.0545342,75.9852926 63.9235342,75.5942926 65.0865342,74.5292926 C66.7115342,73.0402926 66.8885342,70.5542926 66.8175342,68.4972926 C66.7895342,67.6872926 65.5255342,67.6832926 65.5535342,68.4972926 C65.6075342,70.0322926 65.5595342,71.7062926 64.6955342,73.0352926 C64.3655342,73.5432926 63.9155342,73.9222926 63.4025342,74.1292926 C63.1325342,74.2392926 62.7875342,74.3252926 62.5615342,74.3442926 C62.2755342,74.3672926 61.9705342,74.3572926 61.7625342,74.3122926 C61.2415342,74.1992926 60.8575342,73.9632926 60.6085342,73.5092926 C60.2635342,72.8802926 60.2695342,72.0962926 60.4375342,71.4162926 C60.5275342,71.0552926 60.6585342,70.7132926 60.8425342,70.3902926 C60.9165342,70.2622926 60.9965342,70.1392926 61.0825342,70.0202926 C61.1495342,69.9262926 61.0475342,70.0572926 61.1235342,69.9672926 C61.1685342,69.9142926 61.2115342,69.8632926 61.2585342,69.8122926 C61.6315342,69.4012926 61.9325342,69.1722926 62.4495342,68.9322926 C62.4495342,68.9322926 62.5445342,68.8902926 62.4905342,68.9132926 C62.4445342,68.9322926 62.5525342,68.8902926 62.5635342,68.8862926 C62.6335342,68.8622926 62.7045342,68.8372926 62.7755342,68.8172926 C62.8465342,68.7962926 62.9195342,68.7792926 62.9915342,68.7632926 C63.0225342,68.7562926 63.2065342,68.7282926 63.1075342,68.7402926 C63.4425342,68.7002926 63.6525342,68.7182926 63.9165342,68.7892926 C64.2095342,68.8672926 64.4815342,69.0002926 64.7525342,69.2152926 C65.0855342,69.4782926 65.3585342,69.8112926 65.5935342,70.1592926 C65.7855342,70.4432926 66.1505342,70.5672926 66.4595342,70.3862926 C66.7395342,70.2232926 66.8775342,69.8062926 66.6855342,69.5222926 C66.1685342,68.7552926 65.5235342,68.0762926 64.6585342,67.7152926 Z" id="Fill-109" stroke="#2F2F2F" stroke-width="0.5" fill="#2F2F2F"></path>
            <path d="M50.3435342,34.5022926 C50.3315342,33.0322926 51.3565342,31.3852926 52.9675342,31.3892926 C53.6515342,31.3902926 54.4075342,31.6922926 54.7705342,32.2992926 C55.2335342,33.0742926 55.0495342,34.1692926 55.1865342,35.0332926 C55.2895342,35.6792926 56.2465342,35.5902926 56.4055342,35.0332926 C56.8685342,33.4192926 57.4705342,31.3292926 59.3575342,30.9192926 C61.5325342,30.4452926 61.7425342,33.0282926 61.6705342,34.5522926 C61.5025342,38.1212926 57.8905342,39.9542926 56.5105342,42.9852926 C56.1755342,43.7192926 57.2645342,44.3632926 57.6015342,43.6222926 C58.9095342,40.7512926 62.0975342,39.0322926 62.7775342,35.8242926 C63.1005342,34.2982926 63.1365342,32.1632926 62.2025342,30.8242926 C61.2745342,29.4942926 59.5845342,29.3372926 58.1945342,29.9992926 C56.3755342,30.8672926 55.7025342,32.8992926 55.1865342,34.6982926 C55.5925342,34.6982926 55.9995342,34.6982926 56.4055342,34.6982926 C56.2635342,33.8042926 56.3965342,32.8782926 56.0385342,32.0242926 C55.7655342,31.3762926 55.2605342,30.8562926 54.6375342,30.5342926 C53.3475342,29.8692926 51.8215342,30.0532926 50.6995342,30.9562926 C49.4605342,31.9512926 48.9265342,33.5872926 49.1325342,35.1352926 C49.3645342,36.8792926 50.4055342,38.3832926 51.6845342,39.5432926 C53.2865342,40.9962926 55.2335342,41.9862926 56.8965342,43.3592926 C57.5195342,43.8722926 58.4185342,42.9842926 57.7905342,42.4652926 C55.2105342,40.3352926 50.3785342,38.4592926 50.3435342,34.5022926 Z" id="Fill-110" stroke="#2F2F2F" stroke-width="0.5" fill="#2F2F2F"></path>
            <path d="M29.8525342,5.15629263 C29.5205342,4.30129263 28.4735342,1.85729263 30.2305342,1.95229263 C30.9735342,1.99229263 31.5595342,2.61829263 32.0155342,3.14329263 C32.5665342,3.77629263 33.0255342,4.47829263 33.4265342,5.21329263 C33.7615342,5.82629263 34.8405342,5.40729263 34.5815342,4.72629263 C34.1265342,3.53229263 34.8025342,1.86529263 36.0015342,1.34129263 C37.5495342,0.663292634 38.2465342,2.90829263 38.1645342,4.01229263 C38.0555342,5.46429263 37.3455342,6.94629263 36.6765342,8.21629263 C35.9985342,9.50529263 35.1715342,10.7072926 34.3695342,11.9202926 C33.9195342,12.6002926 35.0125342,13.2332926 35.4605342,12.5572926 C36.5105342,10.9712926 37.5825342,9.39729263 38.3495342,7.64829263 C39.1055342,5.92729263 39.8695342,3.91829263 39.1495342,2.05629263 C38.4945342,0.362292634 36.5545342,-0.671707366 34.9535342,0.502292634 C33.5945342,1.49829263 32.7395342,3.42629263 33.3635342,5.06229263 C33.7485342,4.89929263 34.1325342,4.73729263 34.5175342,4.57529263 C33.6855342,3.05129263 32.3115342,0.865292634 30.3815342,0.699292634 C29.6215342,0.634292634 28.8135342,0.910292634 28.3485342,1.53529263 C27.7795342,2.30129263 27.9495342,3.26729263 28.1825342,4.12429263 C29.1565342,7.68929263 31.4925342,10.7952926 34.5955342,12.7842926 C35.2825342,13.2242926 35.9175342,12.1312926 35.2335342,11.6932926 C32.8205342,10.1472926 30.8925342,7.83329263 29.8525342,5.15629263 Z" id="Fill-111" stroke="#2F2F2F" stroke-width="0.5" fill="#2F2F2F"></path>
            <path d="M17.4065342,61.0072926 C17.0755342,60.1542926 16.0275342,57.7092926 17.7845342,57.8042926 C18.5285342,57.8442926 19.1135342,58.4702926 19.5705342,58.9952926 C20.1205342,59.6282926 20.5795342,60.3302926 20.9805342,61.0652926 C21.3155342,61.6782926 22.3945342,61.2592926 22.1355342,60.5782926 C21.6805342,59.3842926 22.3575342,57.7172926 23.5555342,57.1932926 C25.1045342,56.5162926 25.8005342,58.7612926 25.7175342,59.8652926 C25.6105342,61.3162926 24.9005342,62.7982926 24.2315342,64.0682926 C23.5525342,65.3572926 22.7265342,66.5602926 21.9225342,67.7722926 C21.4725342,68.4522926 22.5675342,69.0852926 23.0145342,68.4092926 C24.0655342,66.8242926 25.1355342,65.2492926 25.9035342,63.5002926 C26.6595342,61.7802926 27.4235342,59.7712926 26.7045342,57.9082926 C26.0485342,56.2142926 24.1085342,55.1812926 22.5075342,56.3552926 C21.1485342,57.3512926 20.2945342,59.2782926 20.9175342,60.9142926 C21.3015342,60.7512926 21.6865342,60.5892926 22.0725342,60.4272926 C21.2395342,58.9032926 19.8665342,56.7172926 17.9355342,56.5512926 C17.1745342,56.4862926 16.3685342,56.7632926 15.9035342,57.3882926 C15.3335342,58.1532926 15.5025342,59.1192926 15.7375342,59.9762926 C16.7105342,63.5412926 19.0455342,66.6482926 22.1505342,68.6362926 C22.8365342,69.0762926 23.4705342,67.9842926 22.7885342,67.5452926 C20.3755342,65.9982926 18.4465342,63.6852926 17.4065342,61.0072926 Z" id="Fill-112" stroke="#2F2F2F" stroke-width="0.5" fill="#2F2F2F"></path>
            <path d="M38.3325342,60.8602926 C38.6295342,60.8602926 38.9275342,60.8602926 39.2255342,60.8602926 C37.5635342,59.2972926 35.6265342,57.4952926 35.5465342,55.0462926 C35.5185342,54.1492926 35.8255342,52.6272926 36.8735342,52.3712926 C37.9895342,52.0972926 38.4995342,53.4402926 38.4945342,54.3042926 C38.4895342,55.0002926 39.5855342,55.1842926 39.7355342,54.4722926 C39.9005342,53.6852926 40.1295342,52.3312926 41.1555342,52.2462926 C42.1875342,52.1602926 42.1245342,54.0372926 41.9955342,54.6612926 C41.7695342,55.7532926 41.1695342,56.7092926 40.5855342,57.6412926 C39.9075342,58.7262926 39.2265342,59.8102926 38.5475342,60.8942926 C38.1145342,61.5852926 39.2075342,62.2202926 39.6385342,61.5322926 C40.5145342,60.1342926 41.4385342,58.7562926 42.2555342,57.3252926 C42.9685342,56.0762926 43.5025342,54.6702926 43.2805342,53.2122926 C43.0825342,51.9132926 42.1795342,50.7082926 40.7335342,51.0412926 C39.2855342,51.3752926 38.7875342,52.8502926 38.5165342,54.1362926 C38.9295342,54.1932926 39.3435342,54.2482926 39.7575342,54.3042926 C39.7665342,52.8312926 38.9575342,51.3042926 37.3715342,51.1052926 C35.8345342,50.9112926 34.7585342,52.3222926 34.4265342,53.6702926 C33.6105342,56.9902926 36.1225342,59.6742926 38.3325342,61.7532926 C38.5955342,62.0012926 38.9575342,61.9802926 39.2255342,61.7532926 C39.3755342,61.6272926 39.5235342,61.5002926 39.6725342,61.3742926 C40.2945342,60.8492926 39.3975342,59.9592926 38.7795342,60.4812926 C38.6295342,60.6072926 38.4815342,60.7342926 38.3325342,60.8602926 Z" id="Fill-113" stroke="#2F2F2F" stroke-width="0.5" fill="#2F2F2F"></path>
            <path d="M42.6005342,33.9252926 C42.5725342,34.7382926 43.8355342,34.7372926 43.8635342,33.9252926 C44.0755342,27.7182926 44.2875342,21.5102926 44.4995342,15.3032926 C44.5265342,14.4902926 43.2625342,14.4912926 43.2355342,15.3032926 C43.0235342,21.5102926 42.8115342,27.7182926 42.6005342,33.9252926 Z" id="Fill-114" stroke="#2F2F2F" stroke-width="0.5" fill="#2F2F2F"></path>
            <path d="M54.1455342,12.9762926 C54.9145342,12.7242926 54.5855342,11.5032926 53.8095342,11.7582926 C50.4735342,12.8532926 47.1025342,13.8322926 43.6995342,14.6942926 C42.9115342,14.8932926 43.2455342,16.1122926 44.0355342,15.9122926 C47.4385342,15.0512926 50.8095342,14.0722926 54.1455342,12.9762926 Z" id="Fill-115" stroke="#2F2F2F" stroke-width="0.5" fill="#2F2F2F"></path>
            <path d="M41.3605342,32.7102926 C40.6095342,32.6132926 39.8565342,32.6072926 39.1375342,32.8762926 C37.4445342,33.5112926 35.8675342,34.9522926 35.5995342,36.8092926 C35.3365342,38.6272926 36.3755342,40.3012926 38.1785342,40.7552926 C39.8845342,41.1842926 41.7005342,40.5362926 42.9095342,39.2962926 C44.4805342,37.6852926 44.8205342,35.2952926 43.9195342,33.2602926 C43.7815342,32.9482926 43.3265342,32.8752926 43.0555342,33.0332926 C42.7335342,33.2212926 42.6895342,33.5852926 42.8285342,33.8982926 C43.4235342,35.2432926 43.2285342,36.9002926 42.3205342,38.0602926 C41.5235342,39.0772926 40.2685342,39.7162926 38.9675342,39.6142926 C37.6735342,39.5132926 36.7555342,38.5542926 36.8175342,37.2432926 C36.8845342,35.8282926 38.0775342,34.7352926 39.2875342,34.1752926 C39.9195342,33.8832926 40.4665342,33.8672926 41.1715342,33.9502926 C41.7645342,34.0192926 42.4185342,34.1522926 42.9135342,34.4712926 C43.5995342,34.9112926 44.2335342,33.8182926 43.5505342,33.3792926 C42.9085342,32.9672926 42.1065342,32.8072926 41.3605342,32.7102926 Z" id="Fill-116" stroke="#2F2F2F" stroke-width="0.5" fill="#2F2F2F"></path>
            <path d="M52.3005342,18.2722926 C52.8875342,18.1152926 53.5045342,17.9922926 54.0735342,17.7792926 C54.6805342,17.5512926 54.8255342,17.0752926 54.8295342,16.4722926 C54.8375342,15.1302926 54.8255342,13.7872926 54.8225342,12.4452926 C54.8215342,11.6322926 53.5575342,11.6312926 53.5585342,12.4452926 C53.5605342,13.6282926 53.5625342,14.8102926 53.5645342,15.9932926 C53.5645342,16.1452926 53.5425342,16.3252926 53.5655342,16.4722926 C53.5855342,16.5962926 53.5295342,16.7372926 53.6815342,16.5842926 C53.5555342,16.7102926 53.0905342,16.7482926 52.9065342,16.7992926 C52.3105342,16.9612926 51.7135342,17.1222926 51.1165342,17.2792926 C48.7875342,17.8912926 46.4445342,18.4502926 44.0735342,18.8742926 C43.2735342,19.0172926 43.6125342,20.2352926 44.4095342,20.0932926 C47.0685342,19.6172926 49.6925342,18.9712926 52.3005342,18.2722926 Z" id="Fill-117" stroke="#2F2F2F" stroke-width="0.5" fill="#2F2F2F"></path>
            <path d="M59.3345342,21.9052926 C59.3065342,22.7182926 60.5705342,22.7172926 60.5975342,21.9052926 C60.7625342,17.0602926 60.9285342,12.2172926 61.0935342,7.37329263 C61.1215342,6.55929263 59.8575342,6.56029263 59.8305342,7.37329263 C59.6655342,12.2172926 59.4995342,17.0602926 59.3345342,21.9052926 Z" id="Fill-118" stroke="#2F2F2F" stroke-width="0.5" fill="#2F2F2F"></path>
            <path d="M68.5195342,5.69129263 C69.2885342,5.43829263 68.9595342,4.21829263 68.1835342,4.47229263 C65.5815342,5.32729263 62.9495342,6.09229263 60.2945342,6.76329263 C59.5055342,6.96329263 59.8395342,8.18229263 60.6295342,7.98229263 C63.2855342,7.31029263 65.9175342,6.54629263 68.5195342,5.69129263 Z" id="Fill-119" stroke="#2F2F2F" stroke-width="0.5" fill="#2F2F2F"></path>
            <path d="M58.5055342,20.8182926 C57.9085342,20.7412926 57.3065342,20.7392926 56.7345342,20.9522926 C55.3695342,21.4622926 54.0955342,22.6212926 53.8765342,24.1182926 C53.7685342,24.8552926 53.8885342,25.6382926 54.3285342,26.2562926 C54.7265342,26.8162926 55.3215342,27.2012926 55.9865342,27.3682926 C57.3655342,27.7152926 58.8345342,27.1972926 59.8125342,26.1942926 C61.0855342,24.8892926 61.3505342,22.9622926 60.6235342,21.3162926 C60.4845342,21.0042926 60.0295342,20.9302926 59.7575342,21.0892926 C59.4365342,21.2772926 59.3925342,21.6402926 59.5315342,21.9532926 C59.9755342,22.9572926 59.8145342,24.2022926 59.1345342,25.0612926 C58.5245342,25.8332926 57.5805342,26.2792926 56.6385342,26.2052926 C56.2625342,26.1762926 55.8225342,26.0142926 55.5405342,25.7422926 C55.2145342,25.4272926 55.0775342,24.9672926 55.0995342,24.4942926 C55.1495342,23.4482926 56.0585342,22.6332926 56.9585342,22.2202926 C57.0825342,22.1632926 57.2105342,22.1172926 57.3415342,22.0822926 C57.4065342,22.0652926 57.4705342,22.0512926 57.5365342,22.0392926 C57.4195342,22.0602926 57.5555342,22.0392926 57.5995342,22.0362926 C57.8525342,22.0212926 58.1075342,22.0342926 58.3585342,22.0632926 C58.5275342,22.0822926 58.8355342,22.1442926 59.0605342,22.2062926 C59.1905342,22.2422926 59.3205342,22.2822926 59.4445342,22.3342926 C59.3535342,22.2962926 59.4445342,22.3362926 59.4605342,22.3442926 C59.5245342,22.3762926 59.5865342,22.4112926 59.6475342,22.4502926 C60.3335342,22.8912926 60.9675342,21.7982926 60.2855342,21.3592926 C59.7625342,21.0232926 59.1125342,20.8962926 58.5055342,20.8182926 Z" id="Fill-120" stroke="#2F2F2F" stroke-width="0.5" fill="#2F2F2F"></path>
            <path d="M67.0805342,9.82429263 C67.5385342,9.70029263 68.0185342,9.60329263 68.4635342,9.43929263 C68.9985342,9.24129263 69.1515342,8.82129263 69.1545342,8.28529263 C69.1625342,7.23829263 69.1515342,6.19029263 69.1495342,5.14329263 C69.1485342,4.33029263 67.8845342,4.32829263 67.8855342,5.14329263 C67.8865342,5.71729263 67.8875342,6.29029263 67.8885342,6.86429263 C67.8895342,7.13829263 67.8895342,7.41229263 67.8905342,7.68729263 C67.8905342,7.94229263 67.9475342,8.27929263 67.8685342,8.52429263 C67.9215342,8.43129263 67.9765342,8.33829263 68.0305342,8.24529263 C68.1145342,8.23129263 68.1015342,8.23829263 67.9925342,8.26629263 C67.9195342,8.28629263 67.8455342,8.30629263 67.7725342,8.32629263 C67.6005342,8.37329263 67.4295342,8.42029263 67.2585342,8.46629263 C66.9645342,8.54629263 66.6705342,8.62529263 66.3765342,8.70329263 C65.7375342,8.87329263 65.0975342,9.03829263 64.4565342,9.19629263 C63.1735342,9.51029263 61.8845342,9.79329263 60.5855342,10.0262926 C60.2495342,10.0862926 60.0595342,10.4962926 60.1445342,10.8032926 C60.2415342,11.1572926 60.5845342,11.3042926 60.9215342,11.2442926 C62.9975342,10.8732926 65.0445342,10.3692926 67.0805342,9.82429263 Z" id="Fill-121" stroke="#2F2F2F" stroke-width="0.5" fill="#2F2F2F"></path>
        </g>
    </g>
</svg>